<?xml version="1.0" encoding="UTF-8" standalone="no"?>
<svg
   aria-hidden="true"
   focusable="false"
   data-prefix="fas"
   data-icon="tired"
   class="svg-inline--fa fa-tired fa-w-16"
   role="img"
   viewBox="0 0 512 512"
   version="1.1"
   id="svg4"
   sodipodi:docname="gear.svg"
   inkscape:version="1.3 (0e150ed6c4, 2023-07-21)"
   xml:space="preserve"
   inkscape:export-filename="gear.png"
   inkscape:export-xdpi="6"
   inkscape:export-ydpi="6"
   width="512"
   height="512"
   xmlns:inkscape="http://www.inkscape.org/namespaces/inkscape"
   xmlns:sodipodi="http://sodipodi.sourceforge.net/DTD/sodipodi-0.dtd"
   xmlns="http://www.w3.org/2000/svg"
   xmlns:svg="http://www.w3.org/2000/svg"
   xmlns:rdf="http://www.w3.org/1999/02/22-rdf-syntax-ns#"
   xmlns:cc="http://creativecommons.org/ns#"
   xmlns:dc="http://purl.org/dc/elements/1.1/"><metadata
     id="metadata10"><rdf:RDF><cc:Work
         rdf:about=""><dc:format>image/svg+xml</dc:format><dc:type
           rdf:resource="http://purl.org/dc/dcmitype/StillImage" /></cc:Work></rdf:RDF></metadata><defs
     id="defs8" /><sodipodi:namedview
     pagecolor="#ffffff"
     bordercolor="#666666"
     borderopacity="1"
     objecttolerance="10"
     gridtolerance="10"
     guidetolerance="10"
     inkscape:pageopacity="0"
     inkscape:pageshadow="2"
     inkscape:window-width="2020"
     inkscape:window-height="1341"
     id="namedview6"
     showgrid="false"
     inkscape:zoom="1.96875"
     inkscape:cx="247.87302"
     inkscape:cy="256.25397"
     inkscape:window-x="1410"
     inkscape:window-y="0"
     inkscape:window-maximized="0"
     inkscape:current-layer="svg4"
     inkscape:showpageshadow="2"
     inkscape:pagecheckerboard="0"
     inkscape:deskcolor="#d1d1d1" /><path
     d="m 494.79989,166.93134 c 3.28967,8.69748 0.51318,18.39434 -6.57932,24.59244 l -44.51301,39.3879 c 1.13163,8.29762 1.7468,16.79484 1.7468,25.39219 0,8.59737 -0.61845,17.09492 -1.7468,25.39221 l 44.51301,39.38789 c 7.09349,6.19809 9.86899,15.89528 6.57932,24.59245 -4.52327,11.8965 -9.97161,23.29299 -16.24268,34.28962 l -4.83152,8.09736 c -6.78494,10.99661 -14.39226,21.39341 -22.71937,31.1904 -6.06514,7.1978 -16.13973,9.59706 -25.18629,6.79792 l -57.26078,-17.6944 c -13.77545,10.29667 -28.99013,18.89404 -45.23281,25.39219 l -12.85006,57.08231 c -2.05604,9.09736 -9.25216,16.29514 -18.70994,17.79453 -14.18666,2.30008 -28.78451,3.49908 -43.69095,3.49908 -14.9061,0 -29.50395,-1.19964 -43.69061,-3.49908 -9.45776,-1.50034 -16.65389,-8.69717 -18.70993,-17.79453 l -12.85039,-57.08231 c -16.24269,-6.49815 -31.45736,-15.09552 -45.23281,-25.39219 l -57.157813,17.79453 c -9.046561,2.79914 -19.12114,0.2879 -25.186284,-6.79792 -8.327114,-9.79699 -15.934449,-20.19379 -22.719369,-31.1904 l -4.831522,-8.09769 C 11.425686,369.06923 5.9773534,357.67274 1.4540729,345.77655 -1.8355857,337.07905 0.94088619,327.38219 8.0333901,321.1841 L 52.546418,281.79621 c -1.131642,-8.39742 -1.746808,-16.89497 -1.746808,-25.49234 0,-8.59735 0.615166,-17.09457 1.746808,-25.39219 L 8.0333901,191.52378 C 0.9398993,185.32568 -1.8355857,175.62882 1.4540729,166.93134 5.9773534,155.03515 11.425686,143.63865 17.696762,132.64203 l 4.831522,-8.09767 c 6.78492,-10.99662 14.392255,-21.39342 22.719369,-31.190414 6.065144,-7.197788 16.139723,-9.597052 25.186284,-6.797912 l 57.260783,17.694726 c 13.77545,-10.296998 28.99012,-18.894356 45.23281,-25.3922 l 12.85006,-57.08262 c 2.05604,-9.097044 9.25217,-16.2948325 18.70994,-17.7945317 14.18665,-2.3992628 28.78451,-3.59889417 43.69094,-3.59889417 14.9061,0 29.50396,1.19963137 43.69061,3.49908477 9.45777,1.500339 16.6539,8.6971671 18.70993,17.7945331 l 12.85041,57.082298 c 16.24268,6.498164 31.45735,15.095522 45.23279,25.3922 l 57.26047,-17.694404 c 9.04656,-2.79914 19.12112,-0.287912 25.18659,6.79791 8.32679,9.796994 15.93413,20.193794 22.71905,31.190414 l 4.83184,8.09735 c 6.27076,10.99663 11.71941,22.39312 16.2427,34.28963 z M 248.17847,336.27931 a 82.241468,79.97543 0 1 0 0,-159.95086 82.241468,79.97543 0 1 0 0,159.95086 z"
     id="path1"
     style="fill:#ffffff;fill-opacity:0.996078;stroke-width:1.014;stroke-dasharray:none" /></svg>
