<?xml version="1.0" encoding="UTF-8" standalone="no"?>
<svg
   xmlns:dc="http://purl.org/dc/elements/1.1/"
   xmlns:cc="http://creativecommons.org/ns#"
   xmlns:rdf="http://www.w3.org/1999/02/22-rdf-syntax-ns#"
   xmlns:svg="http://www.w3.org/2000/svg"
   xmlns="http://www.w3.org/2000/svg"
   xmlns:sodipodi="http://sodipodi.sourceforge.net/DTD/sodipodi-0.dtd"
   xmlns:inkscape="http://www.inkscape.org/namespaces/inkscape"
   width="32"
   height="32"
   viewBox="0 0 8.4666665 8.4666669"
   version="1.1"
   id="svg8"
   inkscape:version="1.0.1 (3bc2e813f5, 2020-09-07)"
   sodipodi:docname="landing gear off.svg"
   inkscape:export-filename="D:\Projects\LandingRateMonitor\landing gear off.png"
   inkscape:export-xdpi="96"
   inkscape:export-ydpi="96">
  <defs
     id="defs2" />
  <sodipodi:namedview
     id="base"
     pagecolor="#b8a5c3"
     bordercolor="#666666"
     borderopacity="1.0"
     inkscape:pageopacity="0"
     inkscape:pageshadow="2"
     inkscape:zoom="11.2"
     inkscape:cx="33.618312"
     inkscape:cy="34.5098"
     inkscape:document-units="mm"
     inkscape:current-layer="layer1"
     inkscape:document-rotation="0"
     showgrid="true"
     units="px"
     inkscape:window-width="1718"
     inkscape:window-height="1351"
     inkscape:window-x="1656"
     inkscape:window-y="23"
     inkscape:window-maximized="0"
     objecttolerance="10000"
     guidetolerance="10000">
    <inkscape:grid
       type="xygrid"
       id="grid10" />
  </sodipodi:namedview>
  <metadata
     id="metadata5">
    <rdf:RDF>
      <cc:Work
         rdf:about="">
        <dc:format>image/svg+xml</dc:format>
        <dc:type
           rdf:resource="http://purl.org/dc/dcmitype/StillImage" />
        <dc:title></dc:title>
      </cc:Work>
    </rdf:RDF>
  </metadata>
  <g
     inkscape:label="Layer 1"
     inkscape:groupmode="layer"
     id="layer1">
    <circle
       style="fill:#e63946;fill-opacity:1;stroke:#1d3557;stroke-width:0.265;stroke-opacity:1;stroke-miterlimit:4;stroke-dasharray:none"
       id="path870"
       cx="6.6390715"
       cy="2.0844116"
       r="1.3229166"
       inkscape:transform-center-x="1.9843751"
       inkscape:transform-center-y="-1.2992932" />
    <path
       fill="currentColor"
       d="M 8.074888,6.7848853 H 0.45055637 c -0.11085427,0 -0.20064024,0.089787 -0.20064024,0.2006407 v 0.4012805 c 0,0.1108542 0.089786,0.2006402 0.20064024,0.2006402 H 8.074888 c 0.1108543,0 0.2006403,-0.089786 0.2006403,-0.2006402 V 6.985526 c 0,-0.1108539 -0.089786,-0.2006407 -0.2006403,-0.2006407 z M 0.81183393,3.745937 1.924636,4.7491386 A 0.78509296,0.78509296 0 0 0 2.2440307,4.9238214 L 5.8505395,5.9063317 C 6.1825991,5.996745 6.5347226,6.0156805 6.866281,5.9233851 7.2383435,5.8196787 7.4110196,5.6574109 7.4587969,5.4755808 7.506825,5.2937506 7.4371026,5.0653966 7.1657368,4.7863814 6.9239651,4.537838 6.6095871,4.3751941 6.2775271,4.2847808 L 5.0547498,3.9517177 3.7962332,1.5459151 C 3.777299,1.4730576 3.7216203,1.4161258 3.650017,1.3965634 L 2.8337872,1.1742288 C 2.7013648,1.138115 2.5717009,1.2409415 2.5740828,1.3803869 L 3.175,3.4395833 1.8934101,3.0904691 1.5474322,2.2392527 C 1.5232301,2.177932 1.4720669,2.1317847 1.4092412,2.1147305 L 0.91102558,1.9789222 c -0.12966351,-0.035365 -0.25744536,0.0627 -0.25982896,0.1991352 l 0.002903,1.2763232 c 0.002356,0.1117316 0.0756152,0.2174437 0.15775427,0.2915551 z"
       id="path850"
       style="fill:#fafff8;fill-opacity:1;stroke-width:0.265;stroke:#1d3557;stroke-opacity:1;stroke-miterlimit:4;stroke-dasharray:none" />
  </g>
</svg>
