<?xml version="1.0" encoding="UTF-8" standalone="no"?>
<svg
   xmlns:dc="http://purl.org/dc/elements/1.1/"
   xmlns:cc="http://creativecommons.org/ns#"
   xmlns:rdf="http://www.w3.org/1999/02/22-rdf-syntax-ns#"
   xmlns:svg="http://www.w3.org/2000/svg"
   xmlns="http://www.w3.org/2000/svg"
   xmlns:sodipodi="http://sodipodi.sourceforge.net/DTD/sodipodi-0.dtd"
   xmlns:inkscape="http://www.inkscape.org/namespaces/inkscape"
   width="32"
   height="32"
   viewBox="0 0 8.4666665 8.4666669"
   version="1.1"
   id="svg8"
   inkscape:version="1.0.1 (3bc2e813f5, 2020-09-07)"
   sodipodi:docname="landing gear off.svg"
   inkscape:export-filename="D:\Projects\LandingRateMonitor\landing gear off.png"
   inkscape:export-xdpi="96"
   inkscape:export-ydpi="96">
  <defs
     id="defs2" />
  <sodipodi:namedview
     id="base"
     pagecolor="#262913"
     bordercolor="#666666"
     borderopacity="1.0"
     inkscape:pageopacity="0"
     inkscape:pageshadow="2"
     inkscape:zoom="11.2"
     inkscape:cx="-6.8839265"
     inkscape:cy="23.724235"
     inkscape:document-units="mm"
     inkscape:current-layer="layer1"
     inkscape:document-rotation="0"
     showgrid="true"
     units="px"
     inkscape:window-width="1718"
     inkscape:window-height="1351"
     inkscape:window-x="-8"
     inkscape:window-y="0"
     inkscape:window-maximized="0"
     objecttolerance="10000"
     guidetolerance="10000">
    <inkscape:grid
       type="xygrid"
       id="grid10" />
  </sodipodi:namedview>
  <metadata
     id="metadata5">
    <rdf:RDF>
      <cc:Work
         rdf:about="">
        <dc:format>image/svg+xml</dc:format>
        <dc:type
           rdf:resource="http://purl.org/dc/dcmitype/StillImage" />
        <dc:title></dc:title>
      </cc:Work>
    </rdf:RDF>
  </metadata>
  <g
     inkscape:label="Layer 1"
     inkscape:groupmode="layer"
     id="layer1">
    <rect
       style="fill:#ffffff;fill-opacity:1;stroke:#323232;stroke-width:0.204945;stroke-miterlimit:4;stroke-dasharray:none;stroke-opacity:1"
       id="rect1538"
       width="0.79374993"
       height="3.96875"
       x="3.96875"
       y="1.5874999" />
    <path
       style="fill:#ffffff;fill-opacity:1;stroke:#323232;stroke-width:0.21692;stroke-miterlimit:4;stroke-dasharray:none;stroke-opacity:1"
       d="m 6.0802467,3.7041684 a 0.79374999,0.53352855 0 0 0 -0.79375,0.5335286 0.79374999,0.53352855 0 0 0 0.00517,0.061133 v 2.3915 a 0.79374999,0.53352855 0 0 0 -0.00258,0.041335 0.79374999,0.53352855 0 0 0 0.79375,0.5335286 0.79374999,0.53352855 0 0 0 0.79375,-0.531097 h 0.00258 V 4.2442949 h -0.00517 a 0.79374999,0.53352855 0 0 0 0,-0.0066 0.79374999,0.53352855 0 0 0 -0.79375,-0.5335285 z"
       id="path1624" />
    <path
       style="fill:#ffffff;fill-opacity:1;stroke:#323232;stroke-width:0.218722;stroke-miterlimit:4;stroke-dasharray:none;stroke-opacity:1"
       d="m 2.6329174,3.7041667 a 0.79374999,0.54243166 0 0 0 -0.7803141,0.5424316 0.79374999,0.54243166 0 0 0 0.00258,0.043084 v 2.4995649 a 0.79374999,0.54243166 0 0 0 0.79375,0.5424316 0.79374999,0.54243166 0 0 0 0.79375,-0.5424316 0.79374999,0.54243166 0 0 0 0,-0.00918 V 4.2578989 h -0.0031 a 0.79374999,0.54243166 0 0 0 5.167e-4,-0.0113 0.79374999,0.54243166 0 0 0 -0.7937498,-0.5424316 0.79374999,0.54243166 0 0 0 -0.013436,0 z"
       id="rect1538-7" />
    <rect
       style="fill:#ffffff;fill-opacity:1;stroke:#323232;stroke-width:0.26458333;stroke-miterlimit:4;stroke-dasharray:none;stroke-opacity:1"
       id="rect1613"
       width="7.9375"
       height="0.52916664"
       x="0.26458338"
       y="7.3272009" />
    <circle
       style="fill:#ff3e3e;fill-opacity:1;stroke:#323232;stroke-width:0.264583;stroke-opacity:1"
       id="path870"
       cx="6.946177"
       cy="1.5646944"
       r="1.3229166"
       inkscape:transform-center-x="1.9843751"
       inkscape:transform-center-y="-1.2992932" />
  </g>
</svg>
