<?xml version="1.0" encoding="UTF-8" standalone="no"?>
<svg
   xmlns:dc="http://purl.org/dc/elements/1.1/"
   xmlns:cc="http://creativecommons.org/ns#"
   xmlns:rdf="http://www.w3.org/1999/02/22-rdf-syntax-ns#"
   xmlns:svg="http://www.w3.org/2000/svg"
   xmlns="http://www.w3.org/2000/svg"
   xmlns:sodipodi="http://sodipodi.sourceforge.net/DTD/sodipodi-0.dtd"
   xmlns:inkscape="http://www.inkscape.org/namespaces/inkscape"
   aria-hidden="true"
   focusable="false"
   data-prefix="fas"
   data-icon="tired"
   class="svg-inline--fa fa-tired fa-w-16"
   role="img"
   viewBox="0 0 496 512"
   version="1.1"
   id="svg4"
   sodipodi:docname="tired-solid.svg"
   inkscape:version="1.0.1 (3bc2e813f5, 2020-09-07)">
  <metadata
     id="metadata10">
    <rdf:RDF>
      <cc:Work
         rdf:about="">
        <dc:format>image/svg+xml</dc:format>
        <dc:type
           rdf:resource="http://purl.org/dc/dcmitype/StillImage" />
      </cc:Work>
    </rdf:RDF>
  </metadata>
  <defs
     id="defs8" />
  <sodipodi:namedview
     pagecolor="#ffffff"
     bordercolor="#666666"
     borderopacity="1"
     objecttolerance="10"
     gridtolerance="10"
     guidetolerance="10"
     inkscape:pageopacity="0"
     inkscape:pageshadow="2"
     inkscape:window-width="1718"
     inkscape:window-height="1351"
     id="namedview6"
     showgrid="false"
     inkscape:zoom="1.96875"
     inkscape:cx="248"
     inkscape:cy="256"
     inkscape:window-x="-8"
     inkscape:window-y="0"
     inkscape:window-maximized="0"
     inkscape:current-layer="svg4" />
  <path
     fill="currentColor"
     d="M248 8C111 8 0 119 0 256s111 248 248 248 248-111 248-248S385 8 248 8zm33.8 189.7l80-48c11.6-6.9 24 7.7 15.4 18L343.6 208l33.6 40.3c8.7 10.4-3.9 24.8-15.4 18l-80-48c-7.7-4.7-7.7-15.9 0-20.6zm-163-30c-8.6-10.3 3.8-24.9 15.4-18l80 48c7.8 4.7 7.8 15.9 0 20.6l-80 48c-11.5 6.8-24-7.6-15.4-18l33.6-40.3-33.6-40.3zM248 288c51.9 0 115.3 43.8 123.2 106.7 1.7 13.6-8 24.6-17.7 20.4-25.9-11.1-64.4-17.4-105.5-17.4s-79.6 6.3-105.5 17.4c-9.8 4.2-19.4-7-17.7-20.4C132.7 331.8 196.1 288 248 288z"
     id="path2"
     style="fill:#fff1fa;fill-opacity:0.93333334"
     inkscape:export-xdpi="6.1935482"
     inkscape:export-ydpi="6.1935482" />
</svg>
